<svg width="2216" height="594" viewBox="0 0 2216 594" fill="none" xmlns="http://www.w3.org/2000/svg">
<path d="M808.5 215V257H729V465H675.5V257H628.5V215H675.5V179C675.5 153.667 683.167 134 698.5 120C714.167 106 735.5 99 762.5 99C783.833 99 799.667 103 810 111L800 149.5C796.333 147.167 792.167 145.5 787.5 144.5C782.833 143.167 777.5 142.5 771.5 142.5C757.5 142.5 746.667 145.667 739 152C731.333 158.333 727.5 168.667 727.5 183V215H808.5ZM908.5 102.5V395C908.5 407.333 910.667 415.833 915 420.5C919.333 425.167 926.5 427.5 936.5 427.5C942.5 427.5 947.5 427.167 951.5 426.5C955.833 425.5 961.167 423.833 967.5 421.5L961.5 461.5C949.833 467.167 936 470 920 470C897.667 470 881.167 464.333 870.5 453C860.167 441.667 855 423.833 855 399.5V102.5H908.5ZM1220.73 215L1111.23 494.5C1100.23 523.5 1087.73 543.667 1073.73 555C1059.73 566.667 1041.73 572.5 1019.73 572.5C1007.39 572.5 996.227 571 986.227 568C976.227 565 967.393 560.667 959.727 555L972.727 513.5C984.727 524.167 999.227 529.5 1016.23 529.5C1025.23 529.5 1033.23 527.167 1040.23 522.5C1047.56 517.833 1054.06 508.167 1059.73 493.5L1070.73 466.5L1044.23 404.5L966.227 215H1026.23L1081.73 372L1096.23 419L1112.73 367.5L1165.23 215H1220.73ZM1425.36 215V257H1339.36V390C1339.36 402 1342.7 411 1349.36 417C1356.03 422.667 1364.7 425.5 1375.36 425.5C1384.7 425.5 1392.53 424.167 1398.86 421.5C1405.53 418.5 1411.7 414.5 1417.36 409.5L1429.36 448.5C1421.7 455.167 1412.2 460.5 1400.86 464.5C1389.86 468.167 1377.53 470 1363.86 470C1341.86 470 1323.36 464.667 1308.36 454C1293.36 443 1285.86 424.667 1285.86 399V257H1237.86V215H1285.86V156.5L1339.36 141.5V215H1425.36ZM1478.28 465V215H1523.78L1528.78 260C1542.44 226.667 1568.61 210 1607.28 210C1612.28 210 1617.28 210.5 1622.28 211.5C1627.28 212.167 1631.44 213.333 1634.78 215L1627.28 262C1623.61 260.667 1619.44 259.667 1614.78 259C1610.44 258 1604.44 257.5 1596.78 257.5C1586.11 257.5 1575.78 260.333 1565.78 266C1556.11 271.333 1547.94 279.667 1541.28 291C1534.94 302 1531.78 315.833 1531.78 332.5V465H1478.28ZM1788.96 470C1763.96 470 1741.96 464.833 1722.96 454.5C1704.29 444.167 1689.63 429.333 1678.96 410C1668.29 390.333 1662.96 367 1662.96 340C1662.96 313 1668.13 289.833 1678.46 270.5C1689.13 250.833 1703.63 235.833 1721.96 225.5C1740.63 215.167 1761.96 210 1785.96 210C1810.29 210 1830.96 215 1847.96 225C1864.96 235 1877.96 248.667 1886.96 266C1895.96 283.333 1900.46 303 1900.46 325C1900.46 331.333 1900.29 337.167 1899.96 342.5C1899.63 347.833 1899.13 352.333 1898.46 356H1715.46C1717.79 379.333 1725.29 397.167 1737.96 409.5C1750.96 421.5 1767.63 427.5 1787.96 427.5C1804.63 427.5 1818.13 424.333 1828.46 418C1838.79 411.667 1846.96 402.833 1852.96 391.5L1895.46 411.5C1886.79 429.833 1872.96 444.167 1853.96 454.5C1835.29 464.833 1813.63 470 1788.96 470ZM1784.96 252.5C1766.63 252.5 1751.46 257.833 1739.46 268.5C1727.79 279.167 1720.29 294.667 1716.96 315H1848.46C1847.13 295 1840.79 279.667 1829.46 269C1818.13 258 1803.29 252.5 1784.96 252.5ZM2078.02 470C2053.02 470 2031.02 464.833 2012.02 454.5C1993.36 444.167 1978.69 429.333 1968.02 410C1957.36 390.333 1952.02 367 1952.02 340C1952.02 313 1957.19 289.833 1967.52 270.5C1978.19 250.833 1992.69 235.833 2011.02 225.5C2029.69 215.167 2051.02 210 2075.02 210C2099.36 210 2120.02 215 2137.02 225C2154.02 235 2167.02 248.667 2176.02 266C2185.02 283.333 2189.52 303 2189.52 325C2189.52 331.333 2189.36 337.167 2189.02 342.5C2188.69 347.833 2188.19 352.333 2187.52 356H2004.52C2006.86 379.333 2014.36 397.167 2027.02 409.5C2040.02 421.5 2056.69 427.5 2077.02 427.5C2093.69 427.5 2107.19 424.333 2117.52 418C2127.86 411.667 2136.02 402.833 2142.02 391.5L2184.52 411.5C2175.86 429.833 2162.02 444.167 2143.02 454.5C2124.36 464.833 2102.69 470 2078.02 470ZM2074.02 252.5C2055.69 252.5 2040.52 257.833 2028.52 268.5C2016.86 279.167 2009.36 294.667 2006.02 315H2137.52C2136.19 295 2129.86 279.667 2118.52 269C2107.19 258 2092.36 252.5 2074.02 252.5Z" fill="#0F0F0F"/>
<path d="M302.737 196.513L257.417 238.249V163.14C257.417 155.538 251.16 149.331 243.504 149.331C235.838 149.331 229.612 155.546 229.612 163.14V312.162L184.265 270.402L184.262 270.399L184.259 270.397C178.558 265.169 169.798 265.549 164.618 271.106L164.616 271.108L164.614 271.111C159.371 276.758 159.753 285.452 165.331 290.583L229.612 349.746V417.827H145.346C84.0362 417.733 34.8061 374.221 34.8061 321.483C34.8061 289.423 52.9952 259.44 83.8105 241.444L83.8238 241.437L83.8368 241.429C89.3888 238.105 91.8704 231.627 90.0884 225.464L90.08 225.435L90.0707 225.406C86.4875 213.976 84.7428 202.212 84.7428 190.443C84.7428 117.026 152.988 56.6189 237.511 56.6189C322.132 56.6189 390.28 117.025 390.28 190.443C390.28 202.208 388.537 213.967 384.957 225.393C382.986 231.531 385.682 238.13 391.156 241.425L391.172 241.435L391.189 241.445C422.027 259.44 440.193 289.421 440.193 321.483V321.485V321.487C440.312 374.221 391.086 417.731 329.779 417.731H257.417V275.832L321.676 216.668V216.667C327.371 211.418 327.669 202.712 322.376 197.155C317.101 191.519 308.337 191.226 302.753 196.5C302.748 196.504 302.744 196.509 302.737 196.513ZM467.999 321.37C468.123 282.644 448.096 246.746 414.346 223.376C416.862 212.573 418.086 201.506 418.086 190.446C418.186 101.123 336.831 29 237.511 29C138.189 29 56.9366 101.124 56.9366 190.443C56.9366 201.529 58.2553 212.511 60.6937 223.365C26.9073 246.739 7 282.644 7 321.483C7 390.107 69.3437 445.447 145.341 445.447H229.612V573.19C229.612 580.785 235.838 587 243.504 587C251.16 587 257.417 580.794 257.417 573.19V445.35H329.779C405.778 445.35 467.992 390.01 467.999 321.37Z" fill="#295A4C" stroke="#295A4C" stroke-width="14"/>
</svg>
